<?xml version="1.0" standalone="no"?>
<!DOCTYPE svg PUBLIC "-//W3C//DTD SVG 20010904//EN"
 "http://www.w3.org/TR/2001/REC-SVG-20010904/DTD/svg10.dtd">
<svg version="1.0" xmlns="http://www.w3.org/2000/svg"
 width="512.000000pt" height="512.000000pt" viewBox="0 0 512.000000 512.000000"
 preserveAspectRatio="xMidYMid meet">

<g transform="translate(0.000000,512.000000) scale(0.100000,-0.100000)"
fill="#d8a882" stroke="none">
<path d="M2931 5110 c-156 -33 -262 -91 -377 -205 -74 -73 -98 -106 -132 -175
-59 -120 -76 -194 -76 -325 0 -166 42 -298 136 -422 l46 -62 -66 -36 c-180
-100 -318 -254 -393 -440 -52 -130 -59 -184 -59 -466 l0 -255 29 -45 c55 -87
27 -83 678 -89 l572 -5 32 -50 c17 -27 62 -79 98 -115 128 -125 278 -189 461
-197 137 -6 226 13 350 73 79 39 109 61 181 133 93 93 136 160 176 273 35 99
44 284 18 391 -65 278 -306 499 -588 540 l-82 12 -70 74 c-67 72 -178 153
-243 180 -18 8 -32 16 -32 20 0 4 19 31 41 61 155 205 183 503 69 737 -90 183
-263 326 -455 378 -71 20 -252 28 -314 15z m263 -170 c103 -26 177 -69 258
-151 166 -167 205 -408 102 -626 -162 -341 -620 -417 -889 -148 -107 107 -160
235 -160 390 0 157 53 284 163 393 140 137 336 191 526 142z m-443 -1179 c208
-97 464 -91 647 15 29 17 50 23 65 18 49 -15 163 -77 220 -121 52 -40 58 -48
41 -54 -109 -41 -144 -57 -197 -92 -246 -158 -373 -465 -311 -749 l6 -28 -276
0 -276 0 0 187 c0 178 -1 188 -22 210 -27 29 -77 30 -109 4 -23 -19 -24 -23
-27 -210 l-3 -191 -167 2 -167 3 -3 234 c-2 211 0 242 18 309 60 218 225 403
429 483 25 10 47 18 47 19 1 0 39 -18 85 -39z m1344 -310 c168 -59 304 -208
350 -382 19 -69 19 -209 0 -278 -60 -229 -259 -393 -492 -408 -168 -11 -311
42 -428 161 -82 83 -118 145 -145 252 -25 98 -25 170 0 268 27 107 63 169 145
251 77 77 159 127 251 150 83 21 240 14 319 -14z"/>
<path d="M3860 3412 c-25 -25 -30 -39 -30 -76 0 -40 -3 -47 -29 -60 -46 -24
-98 -93 -111 -147 -16 -64 -5 -119 33 -177 38 -55 119 -102 179 -102 92 0 108
-108 20 -135 -28 -8 -84 10 -107 35 -23 25 -75 26 -104 3 -11 -10 -24 -32 -27
-49 -5 -27 0 -38 30 -71 19 -22 53 -48 76 -58 37 -17 40 -21 40 -57 0 -56 47
-103 93 -94 46 9 67 39 67 96 0 39 4 48 23 57 106 48 157 190 108 298 -35 77
-122 135 -204 135 -32 0 -77 40 -77 68 0 67 97 91 159 40 62 -53 141 -24 141
52 0 26 -9 42 -39 71 -22 20 -56 42 -75 49 -34 11 -36 14 -36 55 0 52 -23 83
-67 91 -27 5 -37 1 -63 -24z"/>
<path d="M1960 2213 c-152 -27 -227 -60 -644 -286 -204 -111 -371 -197 -373
-191 -2 5 -23 40 -46 78 -57 92 -83 111 -155 111 -54 -1 -67 -6 -252 -114
-107 -62 -203 -120 -214 -130 -34 -30 -48 -71 -43 -125 4 -45 52 -134 417
-766 226 -393 424 -727 438 -742 32 -34 83 -52 129 -45 19 3 127 59 240 124
178 102 208 123 229 159 39 67 30 114 -47 240 l-19 32 36 22 c21 11 71 33 113
47 69 23 87 25 191 20 106 -4 129 -9 290 -61 350 -114 428 -129 570 -107 119
19 194 50 457 194 136 74 523 284 858 466 660 359 672 367 725 477 35 73 39
199 10 277 -29 76 -112 167 -180 196 -138 59 -217 49 -413 -52 -132 -69 -138
-71 -149 -52 -6 11 -32 42 -57 69 -86 92 -220 133 -338 103 -35 -9 -146 -63
-272 -131 l-212 -116 -432 139 c-238 77 -467 146 -509 155 -72 15 -283 20
-348 9z m330 -168 c65 -16 958 -300 1057 -337 62 -23 119 -82 129 -133 24
-128 -45 -233 -164 -251 -38 -6 -98 11 -489 137 -422 135 -447 142 -472 128
-55 -31 -60 -110 -8 -138 45 -24 863 -282 912 -287 66 -8 164 17 227 57 81 53
142 146 156 241 l7 53 145 78 c668 360 689 370 743 370 115 0 197 -80 197
-193 0 -63 -18 -106 -61 -146 -45 -41 -1686 -933 -1769 -961 -88 -30 -178 -38
-261 -24 -38 6 -160 41 -272 77 -267 86 -313 96 -432 96 -120 -1 -221 -25
-324 -76 l-71 -36 -14 22 c-83 132 -495 863 -489 869 14 12 696 381 752 406
135 60 357 81 501 48z m1619 -65 c40 -20 85 -72 79 -91 -2 -6 -87 -55 -188
-109 l-185 -100 -15 23 c-20 31 -101 112 -125 125 -11 6 -18 12 -15 15 15 12
288 156 305 160 34 9 103 -2 144 -23z m-2768 -910 c217 -377 394 -691 394
-698 0 -13 -308 -201 -331 -202 -10 0 -809 1375 -809 1393 0 11 339 205 346
198 3 -3 183 -314 400 -691z"/>
</g>
</svg>
