<?xml version="1.0" encoding="utf-8"?>
<!-- Generator: Adobe Illustrator 24.3.0, SVG Export Plug-In . SVG Version: 6.00 Build 0)  -->
<svg version="1.1" id="Layer_1" xmlns="http://www.w3.org/2000/svg" xmlns:xlink="http://www.w3.org/1999/xlink" x="0px" y="0px"
	 viewBox="0 0 512 512" style="enable-background:new 0 0 512 512;" xml:space="preserve">
<style type="text/css">
	.st0{fill:#D6C3B3;}
</style>
<path class="st0" d="M272,0h80c8.8,0,16,7.2,16,16v64c0,8.8-7.2,16-16,16h-80v32h192c17.7,0,32,14.3,32,32s-14.3,32-32,32H48
	c-17.7,0-32-14.3-32-32s14.3-32,32-32h192V16c0-8.8,7.2-16,16-16H272z M64,224h64v192h40V224h64v192h48V224h64v192h40V224h64v196.3
	c0.6,0.3,1.2,0.7,1.8,1.1l48,32c11.7,7.8,17,22.4,12.9,35.9S494.1,512,480,512H32c-14.1,0-26.5-9.2-30.6-22.7s1.1-28.1,12.9-35.9
	l48-32c0.6-0.4,1.2-0.7,1.8-1.1L64,224z"/>
</svg>
